<?xml version="1.0" encoding="utf-8"?>
<svg xmlns="http://www.w3.org/2000/svg" xmlns:xlink="http://www.w3.org/1999/xlink">
    <symbol viewBox="0 0 16 16" class="bi bi-telephone" fill="currentColor" id="telephone"
            xmlns="http://www.w3.org/2000/svg">
        <path fill-rule="evenodd"
              d="M3.654 1.328a.678.678 0 00-1.015-.063L1.605 2.3c-.483.484-.661 1.169-.45 1.77a17.568 17.568 0 004.168 6.608 17.569 17.569 0 006.608 4.168c.601.211 1.286.033 1.77-.45l1.034-1.034a.678.678 0 00-.063-1.015l-2.307-1.794a.678.678 0 00-.58-.122l-2.19.547a1.745 1.745 0 01-1.657-.459L5.482 8.062a1.745 1.745 0 01-.46-1.657l.548-2.19a.678.678 0 00-.122-.58L3.654 1.328zM1.884.511a1.745 1.745 0 012.612.163L6.29 2.98c.329.423.445.974.315 1.494l-.547 2.19a.678.678 0 00.178.643l2.457 2.457a.678.678 0 00.644.178l2.189-.547a1.745 1.745 0 011.494.315l2.306 1.794c.829.645.905 1.87.163 2.611l-1.034 1.034c-.74.74-1.846 1.065-2.877.702a18.634 18.634 0 01-7.01-4.42 18.634 18.634 0 01-4.42-7.009c-.362-1.03-.037-2.137.703-2.877L1.885.511z"/>
    </symbol>
    <symbol viewBox="0 0 16 16" class="bi bi-telephone-fill" fill="currentColor" id="telephone-fill"
            xmlns="http://www.w3.org/2000/svg">
        <path fill-rule="evenodd"
              d="M2.267.98a1.636 1.636 0 012.448.152l1.681 2.162c.309.396.418.913.296 1.4l-.513 2.053a.636.636 0 00.167.604L8.65 9.654a.636.636 0 00.604.167l2.052-.513a1.636 1.636 0 011.401.296l2.162 1.681c.777.604.849 1.753.153 2.448l-.97.97c-.693.693-1.73.998-2.697.658a17.47 17.47 0 01-6.571-4.144A17.47 17.47 0 01.639 4.646c-.34-.967-.035-2.004.658-2.698l.97-.969z"/>
    </symbol>
    <symbol viewBox="0 0 16 16" class="bi bi-envelope" fill="currentColor" id="envelope"
            xmlns="http://www.w3.org/2000/svg">
        <path fill-rule="evenodd"
              d="M0 4a2 2 0 012-2h12a2 2 0 012 2v8a2 2 0 01-2 2H2a2 2 0 01-2-2V4zm2-1a1 1 0 00-1 1v.217l7 4.2 7-4.2V4a1 1 0 00-1-1H2zm13 2.383l-4.758 2.855L15 11.114v-5.73zm-.034 6.878L9.271 8.82 8 9.583 6.728 8.82l-5.694 3.44A1 1 0 002 13h12a1 1 0 00.966-.739zM1 11.114l4.758-2.876L1 5.383v5.73z"/>
    </symbol>
    <symbol viewBox="0 0 16 16" class="bi bi-envelope-fill" fill="currentColor" id="envelope-fill"
            xmlns="http://www.w3.org/2000/svg">
        <path fill-rule="evenodd"
              d="M.05 3.555A2 2 0 012 2h12a2 2 0 011.95 1.555L8 8.414.05 3.555zM0 4.697v7.104l5.803-3.558L0 4.697zM6.761 8.83l-6.57 4.027A2 2 0 002 14h12a2 2 0 001.808-1.144l-6.57-4.027L8 9.586l-1.239-.757zm3.436-.586L16 11.801V4.697l-5.803 3.546z"/>
    </symbol>
</svg>