<svg xmlns="http://www.w3.org/2000/svg" viewBox="0 0 381.91 88.94"><defs><style>.cls-1{fill:#fff;}.cls-2{fill:#1bc1c7;}</style></defs><g id="Layer_4" data-name="Layer 4"><path class="cls-1" d="M180.26,34a6,6,0,0,0-1.55-4.33,15.91,15.91,0,0,0-3.92-3,51.08,51.08,0,0,0-5.13-2.46,27.47,27.47,0,0,1-5.13-2.79,14.49,14.49,0,0,1-3.92-4,10.65,10.65,0,0,1-1.53-6,10.16,10.16,0,0,1,3.65-8.18q3.61-3,10.25-3a39.24,39.24,0,0,1,7,.61,18.92,18.92,0,0,1,4.92,1.49L183.29,7A21.15,21.15,0,0,0,179,5.58a28.3,28.3,0,0,0-6.34-.69c-2.78,0-4.87.58-6.27,1.82a5.72,5.72,0,0,0-2.11,4.37,5.66,5.66,0,0,0,1.55,4.11,16,16,0,0,0,3.93,3c1.57.87,3.28,1.74,5.12,2.59a32.12,32.12,0,0,1,5.13,3,15.67,15.67,0,0,1,3.92,4,10.1,10.1,0,0,1,1.53,5.82,12.54,12.54,0,0,1-1,5.11,10.79,10.79,0,0,1-3,3.89,13.51,13.51,0,0,1-4.75,2.49,20.58,20.58,0,0,1-6.32.84,34.84,34.84,0,0,1-7.82-.78,21.32,21.32,0,0,1-4.79-1.64l1.8-4.66a20.64,20.64,0,0,0,4.28,1.6,24.86,24.86,0,0,0,6.37.81,18.17,18.17,0,0,0,3.92-.38,9,9,0,0,0,3.17-1.31,6.86,6.86,0,0,0,2.13-2.29A6.56,6.56,0,0,0,180.26,34Z"/><path class="cls-1" d="M222.57,6l-13.76-.1-.28,39.53-5.24,0,.28-39.52-13.77-.1,0-4.67,32.77.23Z"/><path class="cls-1" d="M229.1,1.81a52.61,52.61,0,0,1,5.53-.66c2.09-.15,4-.23,5.72-.21a23.05,23.05,0,0,1,5.52.67,12.72,12.72,0,0,1,4.59,2.11,10.54,10.54,0,0,1,3.16,3.81,12.27,12.27,0,0,1,1.16,5.69,12.2,12.2,0,0,1-2.9,8.38,13.66,13.66,0,0,1-7.22,4.24l3,2.36,10.87,17.57-6.13-.05-12-19.15-6.18-1-.14,20-5.24,0Zm11.34,3.67h-1.7c-.59,0-1.16,0-1.71,0l-1.55.12a6.91,6.91,0,0,0-1.17.18l-.11,16.29,4.93,0a11.67,11.67,0,0,0,7.21-2.09c1.9-1.42,2.87-3.65,2.89-6.68a7.4,7.4,0,0,0-2.3-5.63A9.07,9.07,0,0,0,240.44,5.48Z"/><path class="cls-1" d="M261.91,23.69q.07-11,4.79-16.92T280.06,1a18.4,18.4,0,0,1,8.07,1.7,15.12,15.12,0,0,1,5.62,4.68A20.29,20.29,0,0,1,297,14.56a37.86,37.86,0,0,1,1,9.38Q297.95,35,293.2,40.86t-13.45,5.81a18.06,18.06,0,0,1-8-1.7,15.26,15.26,0,0,1-5.59-4.68,20,20,0,0,1-3.26-7.22A37.84,37.84,0,0,1,261.91,23.69Zm5.56,0a31.84,31.84,0,0,0,.67,7,18.91,18.91,0,0,0,2.21,5.79,11.84,11.84,0,0,0,3.85,4A10.34,10.34,0,0,0,279.78,42,10.91,10.91,0,0,0,289,37.61q3.38-4.43,3.44-13.71a32,32,0,0,0-.68-6.92,18.43,18.43,0,0,0-2.23-5.82,12.24,12.24,0,0,0-3.89-4A10.46,10.46,0,0,0,280,5.63,10.74,10.74,0,0,0,270.88,10Q267.53,14.45,267.47,23.73Z"/><path class="cls-1" d="M314.93,17.24l-3.37-6.4h-.25l.59,6.38-.2,28.92-4.93,0,.32-44.89,2.77,0,20.95,29.63L334.05,37h.32l-.66-6.07.2-28.79,4.93,0L338.53,47l-2.78,0Z"/><path class="cls-1" d="M364.32,24.46l14.84.11L379,44a12.93,12.93,0,0,1-2.44,1.38,22.14,22.14,0,0,1-3,1,25.14,25.14,0,0,1-3.35.64,28.07,28.07,0,0,1-3.38.2,21.38,21.38,0,0,1-7.76-1.42A15.94,15.94,0,0,1,353,41.65a19.56,19.56,0,0,1-4-7.16,32,32,0,0,1-1.38-10.21,27.8,27.8,0,0,1,1.84-10.46,20.22,20.22,0,0,1,4.66-7.07,17.65,17.65,0,0,1,6.4-4,20.92,20.92,0,0,1,7.08-1.21,38.92,38.92,0,0,1,6.25.45A20.27,20.27,0,0,1,378,3.15l-1.36,4.67c-2-1-4.89-1.55-8.64-1.58a15.9,15.9,0,0,0-5.28.88,12.09,12.09,0,0,0-4.72,3,16.27,16.27,0,0,0-3.45,5.6,24.31,24.31,0,0,0-1.39,8.57,27.08,27.08,0,0,0,1,8.09,15.7,15.7,0,0,0,2.95,5.67,11.9,11.9,0,0,0,4.6,3.38,15.6,15.6,0,0,0,5.91,1.15,13.84,13.84,0,0,0,6.87-1.53l.09-12.31L364.3,27.43Z"/><path class="cls-2" d="M26.53,32.71l-16.21-.12L5.84,44.81l-5.25,0L17.64,0,20,0,36.52,45,31,45ZM12.05,28.06,25,28.15,20.18,14.67,18.66,8h-.07L17,14.77Z"/><path class="cls-2" d="M50.74,24.67l-3,0L47.63,45.1l-5.24,0L42.7.87l5.24,0L47.8,21.49l2.84-.87L65.62,1l6.06,0L56.77,20,54.11,22l3.2,2.54,16,20.7-6.63-.05Z"/><path class="cls-2" d="M106.59,1.31l5,0-.2,29.48a20.43,20.43,0,0,1-1.09,6.88,12.28,12.28,0,0,1-3,4.74,11.82,11.82,0,0,1-4.66,2.72,19.37,19.37,0,0,1-6,.84Q88.87,46,84.9,42.39T81,31.63l.21-30.49,5.24,0-.19,28a20.56,20.56,0,0,0,.62,5.65,9.05,9.05,0,0,0,2,3.74,7.53,7.53,0,0,0,3.3,2.07,15.34,15.34,0,0,0,4.64.67q5.11,0,7.34-2.76t2.28-9.24Z"/><path class="cls-2" d="M143.14,33.51l-16.21-.11-4.48,12.22-5.24,0,17-44.77,2.4,0,16.48,45-5.55,0Zm-14.48-4.64L141.6,29l-4.81-13.48-1.52-6.71h-.06l-1.62,6.81Z"/><path class="cls-2" d="M381.91,54.65c-3.38.23-6.77.45-10.15.64-8.58.5-17.17.84-25.76,1.15-17.17.62-34.36.87-51.54.9-34.37,0-68.74-.93-103.07-2.64s-68.75-2.08-103.13-1.41C58.79,54,29.29,55.34,0,58.73v.11q5.52-.59,11.06-1.06c8.56-.76,17.13-1.34,25.71-1.85,17.15-1,34.33-1.65,51.51-2q51.54-.83,103.07,1.74c34.34,1.61,68.73,2.44,103.11,2.31,29.17-.16,58.37-.87,87.45-3.23Z"/><path class="cls-1" d="M12.53,74.09q0-4.73,2-7.25a6.82,6.82,0,0,1,5.7-2.53,8.06,8.06,0,0,1,3.46.7,6.47,6.47,0,0,1,2.41,2,8.66,8.66,0,0,1,1.42,3.08,16,16,0,0,1,.46,4c0,3.15-.67,5.56-2,7.25a6.92,6.92,0,0,1-5.74,2.52,7.76,7.76,0,0,1-3.42-.7,6.52,6.52,0,0,1-2.4-2A8.69,8.69,0,0,1,13,78.1,16.55,16.55,0,0,1,12.53,74.09Zm2.38,0a13.59,13.59,0,0,0,.31,3,8.26,8.26,0,0,0,1,2.47,5.19,5.19,0,0,0,1.66,1.7,4.42,4.42,0,0,0,2.39.63A4.65,4.65,0,0,0,24.17,80c1-1.27,1.43-3.23,1.43-5.87a13.57,13.57,0,0,0-.31-3,7.65,7.65,0,0,0-1-2.48,5.25,5.25,0,0,0-1.67-1.71,4.5,4.5,0,0,0-2.42-.63,4.58,4.58,0,0,0-3.9,1.9Q14.91,70.12,14.91,74.09Z"/><path class="cls-1" d="M33.51,70v7.69a12.57,12.57,0,0,0,.12,1.85,4,4,0,0,0,.42,1.32,2,2,0,0,0,.81.8,2.81,2.81,0,0,0,1.3.27,3.51,3.51,0,0,0,1.3-.23,3.43,3.43,0,0,0,1-.63,4.49,4.49,0,0,0,.78-.94,5.07,5.07,0,0,0,.55-1.12V70H42V79.7c0,.65,0,1.32.07,2a14,14,0,0,0,.23,1.83H40.78l-.54-2.14H40.1a5.29,5.29,0,0,1-1.67,1.76,4.73,4.73,0,0,1-2.68.7,6.42,6.42,0,0,1-1.9-.26,2.92,2.92,0,0,1-1.38-.9A4.28,4.28,0,0,1,31.64,81a11.2,11.2,0,0,1-.29-2.77V70Z"/><path class="cls-1" d="M44.34,70h2.11V67.36l2.16-.62V70h3.67v1.89H48.61v7.48a4,4,0,0,0,.35,2,1.26,1.26,0,0,0,1.18.58,4.06,4.06,0,0,0,1.19-.15q.49-.15,1.08-.39l.49,1.65a8.52,8.52,0,0,1-1.59.56,7.43,7.43,0,0,1-1.87.22,2.67,2.67,0,0,1-2.32-.93,5.47,5.47,0,0,1-.67-3.12V71.93H44.34Z"/><path class="cls-1" d="M55.27,70h1.49l.4,1.62h.11a4.15,4.15,0,0,1,1.61-1.45,5.69,5.69,0,0,1,6.28,1.09c.88,1.07,1.32,2.8,1.32,5.22A9.74,9.74,0,0,1,66,79.58a6.57,6.57,0,0,1-1.25,2.31,5.45,5.45,0,0,1-2,1.46,6.18,6.18,0,0,1-2.55.51,8.17,8.17,0,0,1-1.58-.12,6.2,6.2,0,0,1-1.26-.42v5.62H55.27Zm5.46,1.56a3.15,3.15,0,0,0-2.18.72,4,4,0,0,0-1.12,2.17v6.7a3.91,3.91,0,0,0,1.11.58,5.66,5.66,0,0,0,1.65.2,3.53,3.53,0,0,0,3-1.39,6.52,6.52,0,0,0,1.1-4.09,10.25,10.25,0,0,0-.19-2,4.47,4.47,0,0,0-.61-1.54,3,3,0,0,0-1.08-1A3.48,3.48,0,0,0,60.73,71.6Z"/><path class="cls-1" d="M69.67,71a7.67,7.67,0,0,1,2.38-.92,13.24,13.24,0,0,1,2.85-.3,5.68,5.68,0,0,1,2.26.38,3.14,3.14,0,0,1,1.29,1,3.38,3.38,0,0,1,.6,1.34A7.24,7.24,0,0,1,79.2,74c0,1.08,0,2.13-.08,3.16s-.09,2-.09,2.91a18.72,18.72,0,0,0,.09,1.89,8.84,8.84,0,0,0,.29,1.65H77.82l-.57-1.89h-.13a4.51,4.51,0,0,1-.61.74,3.72,3.72,0,0,1-.88.65,5.18,5.18,0,0,1-1.19.47,5.55,5.55,0,0,1-1.54.19,4.63,4.63,0,0,1-1.6-.27A3.59,3.59,0,0,1,70,82.71a3.45,3.45,0,0,1-.85-1.2,3.86,3.86,0,0,1-.32-1.59,3.81,3.81,0,0,1,.49-2,3.52,3.52,0,0,1,1.36-1.26A6.54,6.54,0,0,1,72.81,76a16.18,16.18,0,0,1,2.71-.2h.75a6.27,6.27,0,0,1,.74,0c0-.54.08-1,.08-1.46a2.94,2.94,0,0,0-.59-2.08,3.08,3.08,0,0,0-2.16-.59,7,7,0,0,0-1,.07c-.35,0-.71.11-1.08.19a10,10,0,0,0-1,.31,4.82,4.82,0,0,0-.88.4ZM73.5,81.86a4.35,4.35,0,0,0,1.35-.2,4.5,4.5,0,0,0,1-.51,3.59,3.59,0,0,0,.71-.69,3.09,3.09,0,0,0,.42-.73V77.49l-.77,0-.77,0a14.41,14.41,0,0,0-1.63.1,5.11,5.11,0,0,0-1.41.35,2.43,2.43,0,0,0-1,.7,1.73,1.73,0,0,0-.36,1.12,2,2,0,0,0,.67,1.55A2.47,2.47,0,0,0,73.5,81.86Z"/><path class="cls-1" d="M81.49,70H83.6V67.36l2.16-.62V70h3.67v1.89H85.76v7.48a4,4,0,0,0,.35,2A1.27,1.27,0,0,0,87.3,82a4,4,0,0,0,1.18-.15q.49-.15,1.08-.39l.49,1.65a8.52,8.52,0,0,1-1.59.56,7.43,7.43,0,0,1-1.87.22,2.69,2.69,0,0,1-2.32-.93,5.47,5.47,0,0,1-.67-3.12V71.93H81.49Z"/><path class="cls-1" d="M92.43,65.93a1.47,1.47,0,0,1,.41-1.06,1.4,1.4,0,0,1,1.07-.45,1.54,1.54,0,0,1,1.11.45,1.44,1.44,0,0,1,.46,1.06A1.33,1.33,0,0,1,95,67a1.63,1.63,0,0,1-1.11.4,1.48,1.48,0,0,1-1.07-.4A1.36,1.36,0,0,1,92.43,65.93ZM92.88,70h2.17v13.5H92.88Z"/><path class="cls-1" d="M109.52,82.46a6.09,6.09,0,0,1-2,1,8.9,8.9,0,0,1-2.61.38,6.66,6.66,0,0,1-2.67-.5,4.65,4.65,0,0,1-1.86-1.43,6,6,0,0,1-1.08-2.23,10.85,10.85,0,0,1-.35-2.91,8,8,0,0,1,1.53-5.27,5.49,5.49,0,0,1,4.4-1.81,8.18,8.18,0,0,1,1.84.21,4.15,4.15,0,0,1,1.65.76,4.21,4.21,0,0,1,1.19,1.61A7,7,0,0,1,110,75a13.12,13.12,0,0,1-.16,2h-8.66a8.39,8.39,0,0,0,.24,2.11,4,4,0,0,0,.76,1.55,3.22,3.22,0,0,0,1.33,1,5.21,5.21,0,0,0,2,.34,5.66,5.66,0,0,0,1.84-.32,4,4,0,0,0,1.38-.76ZM104.87,71.6a3.73,3.73,0,0,0-2.55.84,4.2,4.2,0,0,0-1.15,2.86h6.7a4.13,4.13,0,0,0-.78-2.87A2.93,2.93,0,0,0,104.87,71.6Z"/><path class="cls-1" d="M122,83.54v-7.7a6.63,6.63,0,0,0-.6-3.17,2.35,2.35,0,0,0-2.23-1.07,3.6,3.6,0,0,0-2.36.77,4.1,4.1,0,0,0-1.31,1.93v9.24h-2.16V70h1.51l.4,1.64h.11a4.81,4.81,0,0,1,1.74-1.41,5.71,5.71,0,0,1,2.61-.56,6.65,6.65,0,0,1,1.94.26,2.9,2.9,0,0,1,1.39.9,4.35,4.35,0,0,1,.84,1.74,11.31,11.31,0,0,1,.28,2.77v8.16Z"/><path class="cls-1" d="M126.36,70h2.11V67.36l2.16-.62V70h3.67v1.89h-3.67v7.48a4.13,4.13,0,0,0,.35,2,1.28,1.28,0,0,0,1.19.58,4.1,4.1,0,0,0,1.19-.15q.48-.15,1.08-.39l.48,1.65a8,8,0,0,1-1.59.56,7.41,7.41,0,0,1-1.86.22,2.66,2.66,0,0,1-2.32-.93,5.46,5.46,0,0,1-.68-3.12V71.93h-2.11Z"/><path class="cls-1" d="M145.61,78.49a5.8,5.8,0,0,1,.38-2.07,7.12,7.12,0,0,1,1-1.82,10.17,10.17,0,0,1,1.47-1.54,12.67,12.67,0,0,1,1.72-1.24,16.32,16.32,0,0,1-1.13-1.95,4.79,4.79,0,0,1-.47-2.1,3.69,3.69,0,0,1,.22-1.27,2.88,2.88,0,0,1,.69-1.11,3.51,3.51,0,0,1,1.21-.78,4.84,4.84,0,0,1,1.8-.3,5.3,5.3,0,0,1,1.86.29,3.15,3.15,0,0,1,1.21.74,2.78,2.78,0,0,1,.67,1,3.6,3.6,0,0,1,.2,1.17,4,4,0,0,1-.88,2.33,9,9,0,0,1-2.77,2.31,17.69,17.69,0,0,0,1,1.61c.38.55.79,1.09,1.22,1.63s.88,1.08,1.33,1.61.9,1,1.35,1.47a5,5,0,0,0,.59-.83c.2-.33.39-.68.58-1a10.83,10.83,0,0,0,.51-1.15c.16-.39.3-.77.42-1.13l1.68.78c-.11.31-.26.67-.46,1.1s-.42.85-.66,1.29-.49.87-.75,1.27a9.09,9.09,0,0,1-.7,1c.38.36.72.67,1,.93a10.51,10.51,0,0,0,.85.68c.26.19.51.36.76.51s.49.3.74.45L161,83.86a13.11,13.11,0,0,1-3.27-2.51,11,11,0,0,1-1.07.93,7.52,7.52,0,0,1-1.3.8,8.47,8.47,0,0,1-1.61.56,7.81,7.81,0,0,1-1.93.22,8.08,8.08,0,0,1-2.39-.35,5.67,5.67,0,0,1-2-1,5.18,5.18,0,0,1-1.34-1.69A5.08,5.08,0,0,1,145.61,78.49ZM156.44,80c-.52-.52-1-1.09-1.54-1.7s-1-1.23-1.44-1.84-.88-1.2-1.27-1.77-.72-1.06-1-1.49c-.48.36-.93.72-1.35,1.1a9.38,9.38,0,0,0-1.09,1.2,5.32,5.32,0,0,0-.73,1.37,4.68,4.68,0,0,0-.26,1.56,3.08,3.08,0,0,0,.36,1.5,3.27,3.27,0,0,0,1,1.11,4.64,4.64,0,0,0,1.39.69,5.68,5.68,0,0,0,1.65.24,4.76,4.76,0,0,0,1.31-.18,6.58,6.58,0,0,0,1.2-.44,6.21,6.21,0,0,0,1-.62A4.18,4.18,0,0,0,156.44,80Zm-5.72-12.23a4.05,4.05,0,0,0,.34,1.61,8.45,8.45,0,0,0,.87,1.57,7.51,7.51,0,0,0,2-1.67,2.35,2.35,0,0,0,.55-1.32,2.23,2.23,0,0,0-.42-1.41,1.72,1.72,0,0,0-1.44-.54,1.85,1.85,0,0,0-1.43.49A1.76,1.76,0,0,0,150.72,67.77Z"/><path class="cls-1" d="M178,77.62l.65,2.87h0l.7-2.92L184,64.64h2.24L179,83.83h-1l-7.29-19.19h2.46Z"/><path class="cls-1" d="M188.22,65.93a1.48,1.48,0,0,1,.42-1.06,1.39,1.39,0,0,1,1.07-.45,1.5,1.5,0,0,1,1.1.45,1.4,1.4,0,0,1,.46,1.06,1.3,1.3,0,0,1-.46,1,1.59,1.59,0,0,1-1.1.4,1.46,1.46,0,0,1-1.07-.4A1.36,1.36,0,0,1,188.22,65.93Zm.46,4.11h2.16v13.5h-2.16Z"/><path class="cls-1" d="M201.83,72.12a4.88,4.88,0,0,0-1.54-.28,2.59,2.59,0,0,0-1.84.64,2.7,2.7,0,0,0-.83,1.61v9.45h-2.16V70H197l.4,1.64h.11a4.08,4.08,0,0,1,1.23-1.41,3.06,3.06,0,0,1,1.82-.5,6.68,6.68,0,0,1,1.76.27Z"/><path class="cls-1" d="M203.66,70h2.11V67.36l2.16-.62V70h3.67v1.89h-3.67v7.48a4.13,4.13,0,0,0,.35,2,1.27,1.27,0,0,0,1.19.58,4.1,4.1,0,0,0,1.19-.15q.48-.15,1.08-.39l.48,1.65a8,8,0,0,1-1.59.56,7.41,7.41,0,0,1-1.86.22,2.66,2.66,0,0,1-2.32-.93,5.46,5.46,0,0,1-.68-3.12V71.93h-2.11Z"/><path class="cls-1" d="M216.54,70v7.69a12.57,12.57,0,0,0,.12,1.85,4,4,0,0,0,.42,1.32,2,2,0,0,0,.81.8,2.78,2.78,0,0,0,1.3.27,3.45,3.45,0,0,0,1.29-.23,3.35,3.35,0,0,0,1-.63,4.82,4.82,0,0,0,.78-.94,5.07,5.07,0,0,0,.55-1.12V70H225V79.7c0,.65,0,1.32.07,2a14,14,0,0,0,.23,1.83h-1.48l-.54-2.14h-.14a5.29,5.29,0,0,1-1.67,1.76,4.73,4.73,0,0,1-2.68.7,6.42,6.42,0,0,1-1.9-.26,2.92,2.92,0,0,1-1.38-.9,4.28,4.28,0,0,1-.83-1.74,11.2,11.2,0,0,1-.29-2.77V70Z"/><path class="cls-1" d="M228.94,71a7.63,7.63,0,0,1,2.39-.92,13.08,13.08,0,0,1,2.84-.3,5.68,5.68,0,0,1,2.26.38,3.07,3.07,0,0,1,1.29,1,3.38,3.38,0,0,1,.6,1.34,7.24,7.24,0,0,1,.15,1.46c0,1.08,0,2.13-.08,3.16s-.09,2-.09,2.91a18.72,18.72,0,0,0,.09,1.89,8.84,8.84,0,0,0,.29,1.65h-1.59l-.57-1.89h-.13a4.51,4.51,0,0,1-.61.74,3.72,3.72,0,0,1-.88.65,5.18,5.18,0,0,1-1.19.47,5.55,5.55,0,0,1-1.54.19,4.63,4.63,0,0,1-1.6-.27,3.59,3.59,0,0,1-1.28-.77,3.45,3.45,0,0,1-.85-1.2,3.86,3.86,0,0,1-.31-1.59,3.81,3.81,0,0,1,.48-2A3.52,3.52,0,0,1,230,76.67a6.54,6.54,0,0,1,2.11-.68,16.18,16.18,0,0,1,2.71-.2h.75a6.27,6.27,0,0,1,.74,0c.05-.54.08-1,.08-1.46a2.94,2.94,0,0,0-.59-2.08,3.08,3.08,0,0,0-2.16-.59,7,7,0,0,0-1,.07c-.35,0-.71.11-1.08.19a10,10,0,0,0-1,.31,4.82,4.82,0,0,0-.88.4Zm3.83,10.82a4.35,4.35,0,0,0,1.35-.2,4.5,4.5,0,0,0,1-.51,3.59,3.59,0,0,0,.71-.69,3.09,3.09,0,0,0,.42-.73V77.49l-.77,0-.77,0a14.41,14.41,0,0,0-1.63.1,5.2,5.2,0,0,0-1.41.35,2.43,2.43,0,0,0-1,.7,1.73,1.73,0,0,0-.36,1.12,2,2,0,0,0,.67,1.55A2.47,2.47,0,0,0,232.77,81.86Z"/><path class="cls-1" d="M245,80.21a2.2,2.2,0,0,0,.32,1.36,1.14,1.14,0,0,0,.92.4,6.9,6.9,0,0,0,.75,0,4.41,4.41,0,0,0,.92-.25l.24,1.7a4.43,4.43,0,0,1-1.2.36,7.71,7.71,0,0,1-1.33.13,2.91,2.91,0,0,1-2-.69,3,3,0,0,1-.78-2.33V64.64H245Z"/><path class="cls-1" d="M269.22,66.63h-5.89V83.54h-2.24V66.63h-5.88v-2h14Z"/><path class="cls-1" d="M275.32,72.12a4.88,4.88,0,0,0-1.54-.28,2.58,2.58,0,0,0-1.83.64,2.77,2.77,0,0,0-.84,1.61v9.45H269V70h1.51l.41,1.64h.1a4.29,4.29,0,0,1,1.23-1.41,3.09,3.09,0,0,1,1.83-.5,6.61,6.61,0,0,1,1.75.27Z"/><path class="cls-1" d="M288,82.46a6.14,6.14,0,0,1-2,1,8.9,8.9,0,0,1-2.61.38,6.59,6.59,0,0,1-2.67-.5,4.76,4.76,0,0,1-1.87-1.43,6.35,6.35,0,0,1-1.08-2.23,11.27,11.27,0,0,1-.35-2.91,8,8,0,0,1,1.54-5.27,5.48,5.48,0,0,1,4.4-1.81,8.24,8.24,0,0,1,1.84.21,4.15,4.15,0,0,1,1.65.76A4.09,4.09,0,0,1,288,72.29a6.8,6.8,0,0,1,.46,2.74,13.12,13.12,0,0,1-.16,2h-8.67a7.93,7.93,0,0,0,.25,2.11,4.08,4.08,0,0,0,.75,1.55,3.25,3.25,0,0,0,1.34,1,5.21,5.21,0,0,0,2,.34,5.7,5.7,0,0,0,1.84-.32,3.86,3.86,0,0,0,1.37-.76ZM283.34,71.6a3.73,3.73,0,0,0-2.55.84,4.2,4.2,0,0,0-1.15,2.86h6.7a4.07,4.07,0,0,0-.79-2.87A2.9,2.9,0,0,0,283.34,71.6Z"/><path class="cls-1" d="M291.63,71a7.63,7.63,0,0,1,2.39-.92,13.24,13.24,0,0,1,2.85-.3,5.66,5.66,0,0,1,2.25.38,3.17,3.17,0,0,1,1.3,1,3.51,3.51,0,0,1,.59,1.34,7.24,7.24,0,0,1,.15,1.46c0,1.08,0,2.13-.08,3.16s-.08,2-.08,2.91a18.83,18.83,0,0,0,.08,1.89,8.07,8.07,0,0,0,.3,1.65h-1.6l-.56-1.89h-.14a4.05,4.05,0,0,1-.61.74,3.66,3.66,0,0,1-.87.65,5.37,5.37,0,0,1-1.19.47,5.6,5.6,0,0,1-1.54.19,4.69,4.69,0,0,1-1.61-.27,3.68,3.68,0,0,1-1.28-.77,3.58,3.58,0,0,1-.85-1.2,3.86,3.86,0,0,1-.31-1.59,3.81,3.81,0,0,1,.48-2,3.48,3.48,0,0,1,1.37-1.26,6.48,6.48,0,0,1,2.1-.68,16.3,16.3,0,0,1,2.72-.2h.74a6.27,6.27,0,0,1,.74,0,13.06,13.06,0,0,0,.08-1.46,2.89,2.89,0,0,0-.59-2.08,3.08,3.08,0,0,0-2.16-.59,7.08,7.08,0,0,0-1,.07c-.35,0-.71.11-1.08.19a10.73,10.73,0,0,0-1.05.31,5.54,5.54,0,0,0-.88.4Zm3.83,10.82a4,4,0,0,0,2.38-.71A3.31,3.31,0,0,0,299,79.73V77.49l-.77,0-.77,0a14.56,14.56,0,0,0-1.63.1,5,5,0,0,0-1.4.35,2.47,2.47,0,0,0-1,.7,1.73,1.73,0,0,0-.36,1.12,2,2,0,0,0,.67,1.55A2.47,2.47,0,0,0,295.46,81.86Z"/><path class="cls-1" d="M303.45,70h2.11V67.36l2.16-.62V70h3.67v1.89h-3.67v7.48a4.13,4.13,0,0,0,.35,2,1.27,1.27,0,0,0,1.19.58,4.1,4.1,0,0,0,1.19-.15q.48-.15,1.08-.39l.48,1.65a8,8,0,0,1-1.59.56,7.41,7.41,0,0,1-1.86.22,2.66,2.66,0,0,1-2.32-.93,5.46,5.46,0,0,1-.68-3.12V71.93h-2.11Z"/><path class="cls-1" d="M322.3,83.54V75.9a17,17,0,0,0-.09-1.88,4.26,4.26,0,0,0-.37-1.34,1.83,1.83,0,0,0-.77-.81,2.74,2.74,0,0,0-1.31-.27,2.9,2.9,0,0,0-2.06.76,3.91,3.91,0,0,0-1.15,1.89v9.29h-2.16V70h1.51l.41,1.64h.1a6.32,6.32,0,0,1,1.69-1.41,5,5,0,0,1,2.5-.56,4.08,4.08,0,0,1,2.12.5A3.24,3.24,0,0,1,324,72a4.31,4.31,0,0,1,1.72-1.64,5,5,0,0,1,2.47-.6,6.21,6.21,0,0,1,1.91.26,2.69,2.69,0,0,1,1.3.9,4.14,4.14,0,0,1,.74,1.76,14.43,14.43,0,0,1,.23,2.81v8.1h-2.16V75.41a13.78,13.78,0,0,0-.09-1.69,3.27,3.27,0,0,0-.38-1.19,1.76,1.76,0,0,0-.78-.7,3.24,3.24,0,0,0-1.31-.23,2.83,2.83,0,0,0-2.11.76,4.4,4.4,0,0,0-1.08,2.16v9Z"/><path class="cls-1" d="M346.17,82.46a6.09,6.09,0,0,1-2,1,8.9,8.9,0,0,1-2.61.38,6.66,6.66,0,0,1-2.67-.5A4.72,4.72,0,0,1,337,81.93a6,6,0,0,1-1.08-2.23,10.85,10.85,0,0,1-.35-2.91,7.91,7.91,0,0,1,1.54-5.27,5.47,5.47,0,0,1,4.4-1.81,8.16,8.16,0,0,1,1.83.21,3.84,3.84,0,0,1,2.84,2.37,7,7,0,0,1,.46,2.74,14.58,14.58,0,0,1-.16,2H337.8a8.39,8.39,0,0,0,.24,2.11,4.09,4.09,0,0,0,.76,1.55,3.28,3.28,0,0,0,1.33,1,5.23,5.23,0,0,0,2,.34,5.6,5.6,0,0,0,1.83-.32,4,4,0,0,0,1.38-.76ZM341.52,71.6a3.73,3.73,0,0,0-2.55.84,4.15,4.15,0,0,0-1.14,2.86h6.69a4.13,4.13,0,0,0-.78-2.87A2.91,2.91,0,0,0,341.52,71.6Z"/><path class="cls-1" d="M358.7,83.54v-7.7a6.61,6.61,0,0,0-.61-3.17,2.35,2.35,0,0,0-2.23-1.07,3.6,3.6,0,0,0-2.36.77,4.1,4.1,0,0,0-1.31,1.93v9.24H350V70h1.51l.41,1.64h.1a4.93,4.93,0,0,1,1.75-1.41,5.64,5.64,0,0,1,2.6-.56,6.6,6.6,0,0,1,1.94.26,2.93,2.93,0,0,1,1.4.9,4.48,4.48,0,0,1,.83,1.74,11.25,11.25,0,0,1,.29,2.77v8.16Z"/><path class="cls-1" d="M363,70h2.1V67.36l2.16-.62V70H371v1.89h-3.67v7.48a4.13,4.13,0,0,0,.35,2,1.28,1.28,0,0,0,1.19.58,4.1,4.1,0,0,0,1.19-.15q.48-.15,1.08-.39l.49,1.65a8.37,8.37,0,0,1-1.6.56,7.35,7.35,0,0,1-1.86.22,2.67,2.67,0,0,1-2.32-.93,5.46,5.46,0,0,1-.68-3.12V71.93H363Z"/></g></svg>